<svg height="33" viewBox="0 0 298 33" width="298" xmlns="http://www.w3.org/2000/svg" xmlns:xlink="http://www.w3.org/1999/xlink"><linearGradient id="a" x1="0%" x2="109.1875%" y1="49.386852%" y2="50.722732%"><stop offset="0" stop-color="#fcd55f"/><stop offset=".295949509" stop-color="#ef7e48"/><stop offset=".521114136" stop-color="#ea6067"/><stop offset=".775395499" stop-color="#ae53a7"/><stop offset="1" stop-color="#884dce"/></linearGradient><path d="m345.346202 51.769901c0-1.4754801.342418-2.870307.949038-4.1032343-2.925332 1.504539-4.933491 4.6007937-4.933491 8.1803749 0 5.0556544 4.003573 9.1529584 8.942858 9.1529584 3.49487 0 6.522173-2.0554719 7.992661-5.049131-1.206866.6209115-2.56727.9731764-4.008208.9731764-4.938127 0-8.942858-4.099083-8.942858-9.1541444zm173.591043 2.1684563-5.289158.7914453 3.826199 3.8430587-.901436 5.4271387 4.730521-2.5622374 4.728212 2.5622374-.900859-5.4271387 3.824467-3.8430587-5.287426-.7914453-2.364394-4.9383573zm-84.104458 2.4771799c0 22.1349856-33.219672 22.0902372-33.219672 0 0-21.8653015 33.219672-21.9094533 33.219672 0zm-17.259756 8.5844628s8.793732-4.7800935 8.791996-10.6774633c0-5.8973699-7.86436-6.3092192-8.793732-.1242753 0 0-1.252279-3.9527927-3.935652-4.4709063-2.488934-.4736868-4.855765 1.8977487-4.857501 4.5951816 0 5.8961691 8.794889 10.6774633 8.794889 10.6774633zm163.080144-12.1125244h16.642397v7.027337h-16.642397v5.0572556h17.346825v7.0279318h-25.403279v-31.3333333h25.403279v6.9827245h-17.346825zm-30.854268-4.8874756v8.6666667h7.123415c3.053144-.0454641 4.601175-2.2804785 4.601175-4.4706349 0-2.1428738-1.503936-4.1960318-4.556492-4.1960318zm.054468 24h-8.196544v-31.3333333h15.298041c7.36361 0 12.710702 3.4922545 12.710702 11.0561293 0 7.7887209-5.917332 11.3255878-12.798655 11.3255878h-7.013544zm-11.779058-15.5844629c0 22.1349858-33.219672 22.0902373-33.219672 0 0-21.8658983 33.219672-21.9088568 33.219672 0zm-67.416394.0167434c0-9.563073 6.85355-16.4322805 16.475262-16.4322805 5.975982 0 12.434248 2.6037715 14.940248 10.7301163l-6.986674 2.5136777c-2.065757-4.7582672-5.142206-5.7469128-7.953574-5.7469128-10.851941 0-10.721152 18.0503896 0 18.0503896 2.856327 0 5.71207-.6748088 7.732869-5.5225732l7.383126 2.3788353c-3.076448 8.4413748-9.051847 10.5964671-15.115995 10.5964671-9.621712 0-16.475262-6.9581081-16.475262-16.5677195zm-24.980643 4.6699604c.87591 4.2202651 4.731312 4.5346671 7.53667 4.5788147 1.752985 0 6.835476-.4038903 6.879737-3.052742.043679-3.2776558-6.265319-2.9173165-8.719498-2.9173165-5.74117-.2696578-13.455468-1.0320976-13.455468-9.2483107 0-8.3957862 8.37123-10.3251526 14.551521-10.4593849 6.4412-.0900848 14.986564 1.6161575 15.119348 10.9533599h-8.020051c-.043679-2.6929993-3.243895-3.7704376-6.880902-3.7704376-3.243313-.0453407-6.530888.9420128-6.487209 3.052742 0 2.1089394 2.543284 2.2437683 5.304963 2.3785973 8.370066.0900848 16.871751 1.2564148 16.871751 9.652201 0 5.835826-4.908357 9.2936514-10.256999 10.3251525-1.269022.2696579-2.935813.4050834-4.819253.4050834-6.617663 0-15.207871-2.1560699-15.863639-11.8977591zm-59.201738-6.1022409c5.426747 0 5.470133-7-.177061-7h-7.808864v7zm-.434289-14.3333333c2.686374 0 6.294525.5829346 8.890826 2.6856633 2.332519 1.9254689 3.609906 5.0144278 3.609906 7.834523 0 4.565925-3.125037 8.8629863-7.570742 9.8022249l8.36209 10.6968512v.3140709h-9.593856l-7.659645-10.517807h-3.828652v10.517807h-8.229322v-31.3333333zm-19.927592 15.7488704c0 22.1349858-33.219672 22.0902373-33.219672 0 0-21.8658983 33.219672-21.9088568 33.219672 0zm-57.91914-3.4828543h12.641352v-12.2660161h8.149919v31.3333333h-8.149919v-11.9959627h-12.641352v11.9959627h-8.194521v-31.3333333h8.194521z" fill="url(#a)" fill-rule="evenodd" transform="translate(-300 -40)"/></svg>